<svg width="48" height="48" viewBox="0 0 48 48" fill="none" xmlns="http://www.w3.org/2000/svg">
<path fill-rule="evenodd" clip-rule="evenodd" d="M0.00048 0.876005C0.00168 1.11553 0.06312 1.34401 0.12624 1.34401C0.1644 1.34401 0.192 1.39441 0.192 1.46401C0.192 1.53001 0.2136 1.58401 0.24 1.58401C0.2664 1.58401 0.288 1.62721 0.288 1.68001C0.288 1.73281 0.3096 1.77601 0.336 1.77601C0.3624 1.77601 0.384 1.80841 0.384 1.84801C0.384 1.88761 0.4164 1.92001 0.456 1.92001C0.50076 1.92001 0.528 1.96537 0.528 2.04001C0.528 2.10601 0.5496 2.16001 0.576 2.16001C0.6024 2.16001 0.624 2.20321 0.624 2.25601C0.624 2.30929 0.65604 2.35201 0.696 2.35201C0.7356 2.35201 0.768 2.38441 0.768 2.42401C0.768 2.46361 0.7896 2.49601 0.816 2.49601C0.8424 2.49601 0.863999 2.55001 0.863999 2.61601C0.863999 2.68201 0.885599 2.73601 0.911999 2.73601C0.938399 2.73601 0.959999 2.77921 0.959999 2.83201C0.959999 2.88529 0.992039 2.92801 1.032 2.92801C1.07676 2.92801 1.104 2.97337 1.104 3.04801C1.104 3.11401 1.1256 3.16801 1.152 3.16801C1.1784 3.16801 1.2 3.22201 1.2 3.28801C1.2 3.35401 1.22316 3.40801 1.25148 3.40801C1.33608 3.40801 1.44 3.53833 1.44 3.64453C1.44 3.70093 1.4712 3.74401 1.512 3.74401C1.55676 3.74401 1.584 3.78937 1.584 3.86401C1.584 3.93001 1.6056 3.98401 1.632 3.98401C1.6584 3.98401 1.68 4.02877 1.68 4.08349C1.68 4.18969 1.78392 4.32001 1.86852 4.32001C1.89684 4.32001 1.92 4.37401 1.92 4.44001C1.92 4.50601 1.9416 4.56001 1.968 4.56001C1.9944 4.56001 2.016 4.61401 2.016 4.68001C2.016 4.75465 2.04324 4.80001 2.088 4.80001C2.13276 4.80001 2.16 4.84537 2.16 4.92001C2.16 4.98601 2.1816 5.04001 2.208 5.04001C2.2344 5.04001 2.256 5.07337 2.256 5.11417C2.256 5.15497 2.31 5.24233 2.376 5.30833C2.442 5.37433 2.496 5.47057 2.496 5.52217C2.496 5.57377 2.5176 5.61601 2.544 5.61601C2.5704 5.61601 2.592 5.67001 2.592 5.73601C2.592 5.81065 2.61924 5.85601 2.664 5.85601C2.70396 5.85601 2.736 5.89873 2.736 5.95201C2.736 6.00481 2.7576 6.04801 2.784 6.04801C2.8104 6.04801 2.832 6.08041 2.832 6.12001C2.832 6.15961 2.8536 6.19201 2.88 6.19201C2.9064 6.19201 2.928 6.24601 2.928 6.31201C2.928 6.38665 2.95524 6.43201 3 6.43201C3.04476 6.43201 3.072 6.47737 3.072 6.55201C3.072 6.61801 3.0936 6.67201 3.12 6.67201C3.1464 6.67201 3.168 6.71521 3.168 6.76801C3.168 6.82129 3.20004 6.86401 3.24 6.86401C3.2796 6.86401 3.312 6.89641 3.312 6.93601C3.312 6.97561 3.3336 7.00801 3.36 7.00801C3.3864 7.00801 3.408 7.06201 3.408 7.12801C3.408 7.19401 3.42948 7.24801 3.45576 7.24801C3.48744 7.24801 3.50772 12.7063 3.51576 23.3601C3.52548 36.1982 3.54024 39.4761 3.588 39.492C3.627 39.505 3.648 39.6115 3.648 39.796C3.648 39.9533 3.66936 40.08 3.696 40.08C3.7224 40.08 3.744 40.1556 3.744 40.248C3.744 40.3654 3.76572 40.416 3.816 40.416C3.86628 40.416 3.888 40.4667 3.888 40.584C3.888 40.6764 3.9096 40.752 3.936 40.752C3.9624 40.752 3.984 40.806 3.984 40.872C3.984 40.9467 4.01124 40.992 4.056 40.992C4.10076 40.992 4.128 41.0374 4.128 41.112C4.128 41.178 4.1496 41.232 4.176 41.232C4.2024 41.232 4.224 41.286 4.224 41.352C4.224 41.418 4.2456 41.472 4.272 41.472C4.2984 41.472 4.32 41.526 4.32 41.592C4.32 41.658 4.34316 41.712 4.37148 41.712C4.45608 41.712 4.56 41.8423 4.56 41.9485C4.56 42.0033 4.58316 42.048 4.61148 42.048C4.6674 42.048 4.8 42.1662 4.8 42.216C4.8 42.2658 4.9326 42.384 4.98852 42.384C5.01684 42.384 5.04 42.4072 5.04 42.4355C5.04 42.4914 5.1582 42.624 5.208 42.624C5.24808 42.624 5.376 42.7519 5.376 42.792C5.376 42.8418 5.5086 42.96 5.56452 42.96C5.59284 42.96 5.616 42.9813 5.616 43.007C5.616 43.033 5.67 43.0678 5.736 43.0843C5.802 43.1009 5.856 43.1337 5.856 43.1572C5.856 43.1808 5.90076 43.2 5.95548 43.2C6.06168 43.2 6.192 43.3039 6.192 43.3885C6.192 43.4169 6.246 43.44 6.312 43.44C6.378 43.44 6.432 43.4616 6.432 43.488C6.432 43.5144 6.486 43.536 6.552 43.536C6.62664 43.536 6.672 43.5633 6.672 43.608C6.672 43.656 6.72 43.68 6.816 43.68C6.8952 43.68 6.96 43.7016 6.96 43.728C6.96 43.7544 7.0248 43.776 7.104 43.776C7.1832 43.776 7.248 43.7976 7.248 43.824C7.248 43.8504 7.3452 43.872 7.464 43.872C7.62396 43.872 7.68 43.8907 7.68 43.944C7.68 44.0016 7.752 44.016 8.04 44.016C8.24796 44.016 8.39999 44.0363 8.39999 44.064C8.39999 44.0957 10.3343 44.112 14.1068 44.112C19.1353 44.112 19.817 44.1205 19.8414 44.184C19.8613 44.236 19.9428 44.256 20.1344 44.256C20.2805 44.256 20.4 44.2776 20.4 44.304C20.4 44.3304 20.4864 44.352 20.592 44.352C20.7307 44.352 20.784 44.3721 20.784 44.424C20.784 44.4636 20.8259 44.496 20.8771 44.496C20.9283 44.496 20.9837 44.5176 21 44.544C21.0163 44.5704 21.0716 44.592 21.1229 44.592C21.1741 44.592 21.216 44.6136 21.216 44.64C21.216 44.6664 21.27 44.688 21.336 44.688C21.4106 44.688 21.456 44.7153 21.456 44.76C21.456 44.8048 21.5013 44.832 21.576 44.832C21.642 44.832 21.696 44.8536 21.696 44.88C21.696 44.9064 21.75 44.928 21.816 44.928C21.882 44.928 21.936 44.9512 21.936 44.9795C21.936 45.0571 22.0629 45.168 22.152 45.168C22.241 45.168 22.368 45.2789 22.368 45.3565C22.368 45.3849 22.3911 45.408 22.4195 45.408C22.4858 45.408 22.608 45.5302 22.608 45.5965C22.608 45.6249 22.6404 45.648 22.68 45.648C22.7196 45.648 22.752 45.6696 22.752 45.696C22.752 45.7224 22.7952 45.744 22.848 45.744C22.9008 45.744 22.944 45.7656 22.944 45.792C22.944 45.8184 22.9764 45.84 23.016 45.84C23.0607 45.84 23.088 45.8854 23.088 45.96C23.088 46.026 23.1096 46.08 23.136 46.08C23.1624 46.08 23.184 46.1124 23.184 46.152C23.184 46.1916 23.2065 46.224 23.2341 46.224C23.3171 46.224 23.5255 46.4589 23.5333 46.5608C23.5371 46.6132 23.5682 46.656 23.6022 46.656C23.6361 46.656 23.664 46.6884 23.664 46.728C23.664 46.7676 23.6856 46.8 23.712 46.8C23.7384 46.8 23.76 46.854 23.76 46.92C23.76 46.9947 23.7872 47.04 23.832 47.04C23.8716 47.04 23.904 47.0616 23.904 47.088C23.904 47.1144 23.9472 47.136 24 47.136C24.0528 47.136 24.096 47.1144 24.096 47.088C24.096 47.0616 24.1284 47.04 24.168 47.04C24.2127 47.04 24.24 46.9947 24.24 46.92C24.24 46.854 24.2616 46.8 24.288 46.8C24.3144 46.8 24.336 46.7676 24.336 46.728C24.336 46.6884 24.3684 46.656 24.408 46.656C24.4503 46.656 24.4805 46.6115 24.4811 46.548C24.4817 46.4851 24.5517 46.3801 24.6491 46.2965C24.7409 46.2175 24.816 46.1149 24.816 46.0685C24.816 46.022 24.8376 45.984 24.864 45.984C24.8904 45.984 24.912 45.9516 24.912 45.912C24.912 45.8724 24.9444 45.84 24.984 45.84C25.0236 45.84 25.056 45.8184 25.056 45.792C25.056 45.7656 25.094 45.744 25.1405 45.744C25.1869 45.744 25.2895 45.6689 25.3685 45.5771C25.4474 45.4852 25.539 45.4096 25.572 45.4091C25.605 45.4085 25.632 45.3849 25.632 45.3565C25.632 45.2789 25.7589 45.168 25.848 45.168C25.937 45.168 26.064 45.0571 26.064 44.9795C26.064 44.9512 26.118 44.928 26.184 44.928C26.25 44.928 26.304 44.9064 26.304 44.88C26.304 44.8536 26.358 44.832 26.424 44.832C26.4986 44.832 26.544 44.8048 26.544 44.76C26.544 44.7153 26.5893 44.688 26.664 44.688C26.73 44.688 26.784 44.6664 26.784 44.64C26.784 44.6136 26.838 44.592 26.904 44.592C26.97 44.592 27.024 44.5704 27.024 44.544C27.024 44.5176 27.0672 44.496 27.12 44.496C27.1733 44.496 27.216 44.464 27.216 44.424C27.216 44.3721 27.2693 44.352 27.408 44.352C27.5136 44.352 27.6 44.3304 27.6 44.304C27.6 44.2776 27.7195 44.256 27.8655 44.256C28.0572 44.256 28.1387 44.236 28.1586 44.184C28.1829 44.1205 28.8647 44.112 33.8931 44.112C37.6657 44.112 39.6 44.0957 39.6 44.064C39.6 44.0363 39.752 44.016 39.96 44.016C40.248 44.016 40.32 44.0016 40.32 43.944C40.32 43.8907 40.376 43.872 40.536 43.872C40.6548 43.872 40.752 43.8504 40.752 43.824C40.752 43.7976 40.806 43.776 40.872 43.776C40.938 43.776 40.992 43.7544 40.992 43.728C40.992 43.7016 41.0676 43.68 41.16 43.68C41.2773 43.68 41.328 43.6583 41.328 43.608C41.328 43.5633 41.3733 43.536 41.448 43.536C41.514 43.536 41.568 43.5144 41.568 43.488C41.568 43.4616 41.622 43.44 41.688 43.44C41.754 43.44 41.808 43.4169 41.808 43.3885C41.808 43.3039 41.9383 43.2 42.0445 43.2C42.0992 43.2 42.144 43.1784 42.144 43.152C42.144 43.1256 42.1764 43.104 42.216 43.104C42.2556 43.104 42.288 43.0716 42.288 43.032C42.288 42.9912 42.3311 42.96 42.3875 42.96C42.4815 42.96 42.624 42.8589 42.624 42.792C42.624 42.7751 42.6548 42.7303 42.6925 42.6925C42.7303 42.6549 42.7751 42.624 42.792 42.624C42.8418 42.624 42.96 42.4914 42.96 42.4355C42.96 42.4072 42.9831 42.384 43.0115 42.384C43.0397 42.384 43.0937 42.3532 43.1315 42.3155C43.1691 42.2777 43.2 42.2237 43.2 42.1955C43.2 42.1672 43.2216 42.144 43.248 42.144C43.2744 42.144 43.296 42.1214 43.296 42.094C43.296 42.0403 43.3407 41.9803 43.548 41.7557C43.6206 41.6771 43.68 41.5811 43.68 41.5423C43.68 41.5037 43.7016 41.472 43.728 41.472C43.7544 41.472 43.776 41.418 43.776 41.352C43.776 41.286 43.7976 41.232 43.824 41.232C43.8504 41.232 43.872 41.178 43.872 41.112C43.872 41.0374 43.8992 40.992 43.944 40.992C43.9887 40.992 44.016 40.9467 44.016 40.872C44.016 40.806 44.0376 40.752 44.064 40.752C44.0904 40.752 44.112 40.6764 44.112 40.584C44.112 40.4667 44.1337 40.416 44.184 40.416C44.2343 40.416 44.256 40.3654 44.256 40.248C44.256 40.1556 44.2776 40.08 44.304 40.08C44.3318 40.08 44.3523 39.9235 44.3527 39.708C44.3532 39.4866 44.3699 39.3619 44.394 39.4001C44.4897 39.5511 44.496 38.5651 44.496 23.276C44.496 12.6227 44.5121 7.24801 44.544 7.24801C44.5704 7.24801 44.592 7.19401 44.592 7.12801C44.592 7.06201 44.6136 7.00801 44.64 7.00801C44.6664 7.00801 44.688 6.97789 44.688 6.94117C44.688 6.90433 44.7204 6.86185 44.76 6.84661C44.7996 6.83149 44.832 6.78589 44.832 6.74557C44.832 6.70513 44.8536 6.67201 44.88 6.67201C44.9064 6.67201 44.928 6.61801 44.928 6.55201C44.928 6.47737 44.9552 6.43201 45 6.43201C45.0447 6.43201 45.072 6.38665 45.072 6.31201C45.072 6.24601 45.0936 6.19201 45.12 6.19201C45.1464 6.19201 45.168 6.14725 45.168 6.09253C45.168 5.98633 45.2719 5.85601 45.3565 5.85601C45.3848 5.85601 45.408 5.80201 45.408 5.73601C45.408 5.67001 45.4296 5.61601 45.456 5.61601C45.4824 5.61601 45.504 5.56201 45.504 5.49601C45.504 5.42137 45.5312 5.37601 45.576 5.37601C45.6207 5.37601 45.648 5.33065 45.648 5.25601C45.648 5.19001 45.6696 5.13601 45.696 5.13601C45.7224 5.13601 45.744 5.09125 45.744 5.03653C45.744 4.93033 45.8479 4.80001 45.9325 4.80001C45.9608 4.80001 45.984 4.74601 45.984 4.68001C45.984 4.61401 46.0056 4.56001 46.032 4.56001C46.0584 4.56001 46.08 4.50601 46.08 4.44001C46.08 4.37401 46.1046 4.32001 46.1347 4.32001C46.2085 4.32001 46.3166 4.17181 46.3184 4.06801C46.3193 4.02181 46.3416 3.98401 46.368 3.98401C46.3944 3.98401 46.416 3.93001 46.416 3.86401C46.416 3.78937 46.4432 3.74401 46.488 3.74401C46.5288 3.74401 46.56 3.70093 46.56 3.64453C46.56 3.53833 46.6639 3.40801 46.7485 3.40801C46.7768 3.40801 46.8 3.35401 46.8 3.28801C46.8 3.22201 46.8216 3.16801 46.848 3.16801C46.8744 3.16801 46.896 3.11401 46.896 3.04801C46.896 2.97337 46.9232 2.92801 46.968 2.92801C47.0079 2.92801 47.04 2.88529 47.04 2.83201C47.04 2.77921 47.0616 2.73601 47.088 2.73601C47.1144 2.73601 47.136 2.68201 47.136 2.61601C47.136 2.55001 47.1576 2.49601 47.184 2.49601C47.2104 2.49601 47.232 2.46361 47.232 2.42401C47.232 2.38441 47.2644 2.35201 47.304 2.35201C47.3439 2.35201 47.376 2.30929 47.376 2.25601C47.376 2.20321 47.3976 2.16001 47.424 2.16001C47.4504 2.16001 47.472 2.10601 47.472 2.04001C47.472 1.96537 47.4992 1.92001 47.544 1.92001C47.5887 1.92001 47.616 1.87465 47.616 1.80001C47.616 1.73401 47.6352 1.68001 47.6588 1.68001C47.6823 1.68001 47.715 1.62661 47.7313 1.56133C47.7477 1.49605 47.8047 1.40209 47.858 1.35241C47.9197 1.29505 47.9654 1.17241 47.9841 1.01509L48.0133 0.768005H41.9264H35.8395L35.6325 0.984005C35.5188 1.10281 35.4036 1.20001 35.3768 1.20001C35.3499 1.20001 35.328 1.22317 35.328 1.25149C35.328 1.31785 35.2058 1.44001 35.1395 1.44001C35.1111 1.44001 35.088 1.46257 35.088 1.49017C35.088 1.55533 34.8673 1.77601 34.8021 1.77601C34.7745 1.77601 34.752 1.79917 34.752 1.82749C34.752 1.89385 34.6298 2.01601 34.5635 2.01601C34.5351 2.01601 34.512 2.03917 34.512 2.06749C34.512 2.13385 34.3898 2.25601 34.3235 2.25601C34.2951 2.25601 34.272 2.27761 34.272 2.30401C34.272 2.33041 34.2288 2.35201 34.176 2.35201C34.1232 2.35201 34.08 2.33041 34.08 2.30401C34.08 2.27761 34.0568 2.25601 34.0285 2.25601C33.9621 2.25601 33.84 2.13385 33.84 2.06749C33.84 2.03917 33.8168 2.01601 33.7885 2.01601C33.7326 2.01601 33.6 1.89781 33.6 1.84801C33.6 1.80793 33.4721 1.68001 33.432 1.68001C33.3822 1.68001 33.264 1.54741 33.264 1.49149C33.264 1.46317 33.2408 1.44001 33.2125 1.44001C33.1566 1.44001 33.024 1.32181 33.024 1.27201C33.024 1.23193 32.8961 1.10401 32.856 1.10401C32.8062 1.10401 32.688 0.971405 32.688 0.915485C32.688 0.887165 32.6435 0.864005 32.5891 0.864005C32.5347 0.864005 32.5037 0.842405 32.52 0.816005C32.5397 0.784085 29.6885 0.768005 24.0029 0.768005C18.337 0.768005 15.456 0.784205 15.456 0.816005C15.456 0.842405 15.4272 0.864005 15.3922 0.864005C15.357 0.864005 15.2993 0.918005 15.264 0.984005C15.2287 1.05001 15.1802 1.10401 15.1565 1.10401C15.1068 1.10401 14.976 1.22581 14.976 1.27201C14.976 1.32181 14.8434 1.44001 14.7875 1.44001C14.7592 1.44001 14.736 1.46317 14.736 1.49149C14.736 1.54741 14.6178 1.68001 14.568 1.68001C14.5279 1.68001 14.4 1.80793 14.4 1.84801C14.4 1.89781 14.2674 2.01601 14.2115 2.01601C14.1832 2.01601 14.16 2.03917 14.16 2.06749C14.16 2.13385 14.0378 2.25601 13.9715 2.25601C13.9432 2.25601 13.92 2.27761 13.92 2.30401C13.92 2.33041 13.8768 2.35201 13.824 2.35201C13.7712 2.35201 13.728 2.33041 13.728 2.30401C13.728 2.27761 13.7048 2.25601 13.6765 2.25601C13.6102 2.25601 13.488 2.13385 13.488 2.06749C13.488 2.03917 13.4648 2.01601 13.4365 2.01601C13.3702 2.01601 13.248 1.89385 13.248 1.82749C13.248 1.79917 13.2254 1.77601 13.1978 1.77601C13.1327 1.77601 12.912 1.55533 12.912 1.49017C12.912 1.46257 12.8888 1.44001 12.8605 1.44001C12.7942 1.44001 12.672 1.31785 12.672 1.25149C12.672 1.22317 12.6475 1.20001 12.6176 1.20001C12.5602 1.20001 12.3361 0.961325 12.336 0.900005C12.336 0.880205 12.3036 0.864005 12.264 0.864005C12.2244 0.864005 12.192 0.842405 12.192 0.816005C12.192 0.784205 10.128 0.768005 6.096 0.768005H0L0.00048 0.876005ZM32.5172 1.33201C33.4829 2.24065 34.0511 2.76433 34.1347 2.82289C34.2236 2.88529 34.2867 2.83357 35.063 2.06221C35.5211 1.60705 35.9247 1.21645 35.9599 1.19413C36.0325 1.14805 47.326 1.13581 47.4453 1.18165C47.5131 1.20769 47.5085 1.23541 47.4067 1.40965C47.2243 1.72213 46.5689 2.89057 46.2722 3.43201C46.1853 3.59041 46.0778 3.77401 46.0331 3.84001C45.9884 3.90601 45.8295 4.18681 45.6801 4.46401C45.5307 4.74121 45.3333 5.09761 45.2414 5.25601C45.1495 5.41441 44.8632 5.92201 44.6051 6.38401L44.136 7.22401L44.1098 23.376C44.082 40.6651 44.0978 39.5331 43.8737 40.2538C43.4184 41.7174 42.2099 42.9372 40.704 43.4529C39.8661 43.7398 40.1408 43.728 34.2446 43.728C28.3705 43.728 28.344 43.7291 27.4183 43.9973C26.2188 44.3449 25.0242 45.1858 24.2503 46.227C23.9905 46.5766 24.0163 46.5779 23.7275 46.2018C22.6964 44.859 21.3246 44.0489 19.6647 43.8024C19.2351 43.7386 18.3932 43.728 13.7592 43.728C8.17392 43.728 7.99692 43.7226 7.512 43.5379C7.4592 43.5178 7.3296 43.4741 7.224 43.441C6.60756 43.2472 5.86584 42.7708 5.34456 42.2338C4.59612 41.4628 4.33512 41.0015 4.01712 39.888L3.9144 39.528L3.8892 23.352L3.864 7.17601L3.74076 6.98401C3.67296 6.87841 3.46776 6.52201 3.28476 6.19201C3.10176 5.86201 2.9304 5.55601 2.904 5.51197C2.8776 5.46793 2.82168 5.37073 2.7798 5.29597C2.60784 4.98937 1.97124 3.84745 1.84776 3.62401C1.7748 3.49201 1.69896 3.36241 1.67904 3.33601C1.65924 3.30961 1.48152 2.99641 1.28424 2.64001C0.866999 1.88641 0.7512 1.68025 0.5946 1.41193C0.53172 1.30405 0.49452 1.20145 0.51204 1.18393C0.52968 1.16641 3.12336 1.15201 6.27588 1.15201H12.0078L12.8458 1.97917C13.3066 2.43409 13.7137 2.82301 13.7504 2.84365C13.8124 2.87833 14.2946 2.45665 15.4782 1.33297L15.768 1.05781L23.9959 1.05697L32.2238 1.05601L32.5172 1.33201ZM16.31 2.43937C16.2649 2.45737 15.9415 2.74201 15.5912 3.07201C13.7748 4.78345 13.8637 4.70353 13.7744 4.70377C13.734 4.70389 13.4964 4.50229 13.2464 4.25581C12.9965 4.00921 12.4852 3.51241 12.1102 3.15181L11.4283 2.49601H7.15272C2.32992 2.49601 2.7288 2.45641 2.99052 2.90917C3.08052 3.06469 3.2184 3.31081 3.297 3.45601C3.37548 3.60121 3.61284 4.02241 3.8244 4.39201C4.03596 4.76161 4.28604 5.20441 4.38036 5.37601C4.47456 5.54761 4.70472 5.95753 4.8918 6.28681L5.232 6.88561V22.9908C5.232 36.7667 5.24196 39.1411 5.30052 39.408C5.60964 40.815 6.54444 41.8267 7.92516 42.2482L8.27999 42.3565L14.088 42.3832C20.1758 42.4111 20.2843 42.415 20.808 42.6211C20.8608 42.6419 21.0228 42.6961 21.168 42.7415C21.3132 42.787 21.4752 42.8433 21.528 42.8664C21.5808 42.8897 21.7505 42.9633 21.9049 43.03C22.4059 43.246 22.9185 43.6269 23.4785 44.1991L24.0175 44.7499L24.2127 44.515C24.9899 43.5792 26.2484 42.8201 27.432 42.5732C27.5376 42.5513 27.7212 42.507 27.84 42.475C28.0007 42.4317 29.5501 42.4085 33.888 42.385L39.72 42.3533L40.0749 42.2465C41.2082 41.9057 42.1278 41.0645 42.5252 40.0051C42.7802 39.3253 42.7679 40.1978 42.7682 22.92C42.7685 9.60781 42.7795 6.86761 42.8329 6.76801C42.9117 6.62113 44.151 4.41877 44.3051 4.15201C44.7836 3.32281 45.1691 2.58457 45.1441 2.54425C45.1245 2.51245 43.6555 2.49601 40.8423 2.49601H36.5705L35.4402 3.58801C34.8185 4.18861 34.2743 4.68541 34.2309 4.69201C34.1383 4.70605 34.0382 4.61737 32.3511 3.02401C32.2812 2.95801 32.1029 2.79061 31.9549 2.65201L31.6857 2.40001L24.0389 2.40337C19.8331 2.40529 16.3552 2.42149 16.31 2.43937ZM9.81191 6.86101C10.609 7.25041 10.8456 7.95265 10.8472 9.93313C10.848 11.0756 10.8176 11.4223 10.6722 11.9353C10.2571 13.3986 8.10816 13.606 7.42056 12.2491C7.00308 11.4251 7.04352 8.18053 7.48008 7.47757C7.91088 6.78397 9.04223 6.48481 9.81191 6.86101ZM14.3452 6.83173C14.3938 6.89029 14.6852 7.95061 14.7871 8.43925C14.8109 8.55313 14.843 8.66701 14.8585 8.69209C14.8853 8.73529 15.4128 10.8002 15.5012 11.208C15.5242 11.3136 15.58 11.5296 15.6251 11.688C15.6703 11.8464 15.7242 12.0516 15.745 12.144C15.7657 12.2364 15.8172 12.4373 15.8593 12.5904C15.9967 13.0892 16.0333 13.0607 15.2761 13.0453L14.6161 13.032L14.5384 12.663C14.4184 12.0937 14.4966 12.144 13.7312 12.144C12.9757 12.144 12.9997 12.1324 12.9412 12.528C12.9236 12.6468 12.8866 12.8142 12.8588 12.9L12.8086 13.056H12.1723C11.8223 13.056 11.5246 13.0446 11.5106 13.0307C11.4772 12.9972 11.5475 12.7097 12.0326 10.896C12.0714 10.7508 12.1216 10.5564 12.144 10.464C12.1663 10.3716 12.2195 10.1556 12.262 9.98401C12.3043 9.81241 12.4056 9.40201 12.4868 9.07201C12.5681 8.74201 12.6992 8.24521 12.7783 7.96801C12.8574 7.69081 12.9325 7.41001 12.9452 7.34401C12.958 7.27801 13.0006 7.12141 13.04 6.99601L13.1117 6.76801H13.702C14.1341 6.76801 14.3064 6.78505 14.3452 6.83173ZM18.1852 6.83185C18.2193 6.87301 18.2427 7.27537 18.251 7.96777C18.2658 9.18661 18.2877 9.24385 18.5233 8.67469C18.6132 8.45761 18.7561 8.12881 18.8408 7.94401C18.9255 7.75921 19.0431 7.50001 19.1021 7.36801C19.1609 7.23601 19.2459 7.05241 19.2908 6.96001L19.3727 6.79201H19.9697C20.7272 6.79201 20.7235 6.68941 20.0185 8.13685C19.7003 8.79001 19.44 9.36121 19.44 9.40597C19.44 9.50665 19.6184 9.96829 19.8911 10.5733C19.9597 10.7258 20.016 10.8719 20.016 10.8979C20.016 10.924 20.0365 10.9828 20.0616 11.0286C20.0867 11.0744 20.2191 11.4036 20.3561 11.76C20.4929 12.1164 20.6559 12.5393 20.7183 12.6997C20.7809 12.8603 20.832 13.0067 20.832 13.025C20.832 13.0435 20.5248 13.0526 20.1494 13.0453L19.4669 13.032L19.2096 12.384C19.068 12.0276 18.9108 11.6444 18.8601 11.5325C18.8094 11.4206 18.768 11.3159 18.768 11.2998C18.768 11.2386 18.6115 10.944 18.579 10.944C18.4196 10.944 18.2634 11.5634 18.24 12.288L18.216 13.032H17.568H16.92L16.9075 9.96001C16.9007 8.27041 16.9055 6.86101 16.9181 6.82801C16.9517 6.74005 18.1118 6.74341 18.1852 6.83185ZM22.7708 6.87601C22.7822 6.93541 22.8146 7.10281 22.8427 7.24801C22.8709 7.39321 22.9022 7.58761 22.9123 7.68001C22.9225 7.77241 22.9764 8.12881 23.0321 8.47201C23.0877 8.81521 23.1579 9.25801 23.1879 9.45601C23.4033 10.8739 23.4528 10.9656 23.5651 10.1563C23.6261 9.71713 23.7383 8.98561 23.8051 8.59201C23.8298 8.44681 23.8745 8.16601 23.9043 7.96801C23.9849 7.43617 24.0945 6.85717 24.1239 6.80965C24.1613 6.74929 25.4274 6.75685 25.4651 6.81769C25.4918 6.86113 25.2779 7.98121 25.1535 8.44801C25.1289 8.54041 25.0531 8.86441 24.9851 9.16801C24.917 9.47161 24.8424 9.79561 24.8192 9.88801C24.7817 10.0372 24.7299 10.2666 24.5729 10.98C24.5481 11.0922 24.5073 11.2758 24.482 11.388C24.4568 11.5002 24.3996 11.7648 24.3551 11.976C24.3104 12.1872 24.2379 12.5112 24.194 12.696L24.114 13.032H23.424H22.734L22.5773 12.312C22.3859 11.4323 22.328 11.1684 22.272 10.92C22.2482 10.8144 22.1724 10.4688 22.1034 10.152C22.0345 9.83521 21.9591 9.51121 21.936 9.43201C21.9129 9.35281 21.7951 8.83441 21.6743 8.28001C21.5535 7.72561 21.435 7.18849 21.411 7.08637C21.3367 6.77053 21.342 6.76801 22.0842 6.76801C22.7366 6.76801 22.7505 6.77017 22.7708 6.87601ZM27.7628 6.84397C27.8229 7.00045 27.7955 12.9853 27.7344 13.0464C27.6739 13.1069 26.669 13.1305 26.5239 13.0748C26.4447 13.0445 26.4015 6.87841 26.48 6.80005C26.5553 6.72481 27.7326 6.76513 27.7628 6.84397ZM30.3851 9.33601C30.3989 10.7352 30.4151 11.8854 30.4211 11.892C30.4271 11.8986 30.7884 11.904 31.224 11.904H32.016V12.4807V13.0574L30.564 13.0447L29.112 13.032L29.0996 9.96541C29.0905 7.70197 29.1018 6.88117 29.1427 6.83197C29.1857 6.78013 29.3288 6.76813 29.7791 6.77857L30.36 6.79201L30.3851 9.33601ZM34.4174 9.33601C34.4315 10.7352 34.4477 11.8854 34.4534 11.892C34.4593 11.8986 34.82 11.904 35.255 11.904C36.1819 11.904 36.1086 11.8447 36.086 12.576L36.072 13.032L34.596 13.0447L33.12 13.0574V9.94465C33.12 8.23273 33.135 6.81697 33.1533 6.79861C33.1717 6.78025 33.4579 6.77125 33.7893 6.77869L34.392 6.79201L34.4174 9.33601ZM40.1177 7.31941C40.1354 7.99813 40.1763 7.96801 39.2359 7.96801C38.3786 7.96801 38.448 7.90885 38.448 8.64001C38.448 9.36205 38.4002 9.31189 39.0891 9.31261C39.9457 9.31357 39.888 9.27205 39.888 9.88777C39.888 10.5325 39.9205 10.5058 39.1169 10.5226L38.472 10.536L38.4585 11.1244C38.4396 11.95 38.3835 11.8988 39.3251 11.9148L40.104 11.928L40.1175 12.4927L40.131 13.0574L38.6535 13.0447L37.176 13.032L37.1636 9.96541C37.1546 7.72093 37.166 6.88105 37.2061 6.83269C37.2509 6.77881 37.5227 6.76897 38.6825 6.77929L40.104 6.79201L40.1177 7.31941ZM8.67875 8.00401C8.29439 8.41609 8.31132 11.6059 8.6994 11.8777C9.00756 12.0936 9.35939 11.9168 9.45911 11.496C9.54011 11.1542 9.54047 8.75437 9.45971 8.38129C9.35291 7.88845 8.96255 7.69993 8.67875 8.00401ZM13.68 8.89357C13.68 8.90989 13.6129 9.25369 13.5308 9.65761C13.4488 10.0615 13.362 10.4892 13.338 10.608C13.2824 10.8828 13.3535 10.944 13.728 10.944C14.2278 10.944 14.2294 10.89 13.7824 9.10417C13.7416 8.94085 13.68 8.81437 13.68 8.89357ZM41.7497 14.6521L41.7632 15.1681L23.9897 15.1561L6.216 15.144L6.20208 14.7244C6.19428 14.4883 6.21084 14.2625 6.23988 14.2082C6.29136 14.112 6.31044 14.1119 24.0137 14.1239L41.736 14.136L41.7497 14.6521ZM19.656 17.4563C20.5272 18.0803 21.4713 18.7549 21.7542 18.9554C22.4753 19.4666 24.2987 20.7718 24.9758 21.2615C25.2881 21.4872 25.7129 21.7908 25.9196 21.936C26.1265 22.0812 26.7005 22.4916 27.1952 22.848C27.69 23.2044 28.2156 23.5808 28.3633 23.6845C28.5111 23.7882 28.9165 24.0798 29.2641 24.3325C30.0315 24.8903 32.3028 26.5152 32.8248 26.88C33.3906 27.2754 36.3828 29.4212 36.576 29.5702C36.7592 29.7114 39.3863 31.5856 39.8361 31.896C40.1831 32.1354 40.3451 32.2524 40.506 32.3796C40.5753 32.4343 40.8515 32.6338 41.1197 32.8227C41.7912 33.2957 41.76 33.2528 41.76 33.7009C41.76 34.2022 41.7305 34.2075 41.1695 33.8069C40.9175 33.6271 40.5315 33.3522 40.3117 33.1961C40.0919 33.04 39.6852 32.7471 39.408 32.5451C39.1308 32.3433 38.4504 31.8564 37.896 31.4632C37.3416 31.0699 36.6936 30.6049 36.456 30.4296C35.9449 30.0527 33.4986 28.3042 33.0009 27.96C32.81 27.828 32.4681 27.5834 32.2411 27.4164C32.0141 27.2495 31.277 26.7203 30.6032 26.2404C28.4487 24.7063 25.908 22.8882 25.512 22.5973C25.3008 22.4423 24.8928 22.149 24.6054 21.9457C24.3179 21.7423 23.9787 21.5004 23.8515 21.408C23.6333 21.2494 22.6437 20.5432 22.2078 20.2348C22.0979 20.157 21.63 19.8204 21.168 19.4868C20.706 19.1531 19.8744 18.5585 19.32 18.1655C18.7656 17.7724 18.2238 17.3854 18.1159 17.3054C18.008 17.2254 17.6894 16.993 17.4079 16.7887C16.7634 16.3212 16.7635 16.3198 17.484 16.321L18.072 16.3218L19.656 17.4563ZM41.684 16.3492C41.7677 16.3812 41.8031 31.3458 41.7198 31.477C41.6911 31.5221 41.601 31.4808 41.3725 31.318C41.2028 31.197 40.6536 30.807 40.152 30.4512C39.6504 30.0955 39.0024 29.6325 38.712 29.4221C38.4216 29.2117 37.806 28.7694 37.344 28.439C36.882 28.1087 36.3744 27.7452 36.216 27.6313C36.0576 27.5173 35.658 27.2334 35.328 27.0001C34.998 26.767 34.5943 26.4772 34.4307 26.3561C34.0733 26.0914 31.6033 24.3227 30.839 23.784C30.2837 23.3927 28.0604 21.8012 27.1919 21.1733C26.7835 20.8781 25.9118 20.253 24.696 19.3835C24.5376 19.2701 24.3864 19.1603 24.36 19.1394C24.3336 19.1184 24.096 18.9502 23.832 18.7655C23.568 18.5808 23.3196 18.4027 23.28 18.3697C23.2404 18.3367 23.0568 18.2029 22.872 18.0725C22.0763 17.5105 20.8436 16.6333 20.6991 16.5262C20.6127 16.4621 20.5547 16.3896 20.5699 16.3649C20.6005 16.3154 41.5555 16.2998 41.684 16.3492ZM15.447 17.1C15.5695 17.1858 15.6918 17.2732 15.7189 17.2942C15.7459 17.3152 16.0107 17.5063 16.3075 17.719C17.3551 18.4694 17.616 18.9378 17.3971 19.6747C17.1339 20.5607 16.332 21.3923 15.6442 21.4922L15.398 21.528L15.2113 22.152C14.5476 24.3691 14.5896 24.2868 14.251 24.0355C14.1349 23.9495 13.9265 23.8037 13.7876 23.7115C13.6489 23.6194 13.523 23.5057 13.508 23.4589C13.4849 23.3864 13.6945 22.6466 13.824 22.344C13.8467 22.2912 13.9007 22.1292 13.944 21.984C13.9873 21.8388 14.0399 21.6768 14.0608 21.624C14.2469 21.153 14.2488 20.9995 14.0699 20.907L13.9316 20.8356L13.5564 21.3738C12.8926 22.326 12.5696 22.752 12.5119 22.752C12.4487 22.752 11.5909 22.156 11.5433 22.0788C11.5103 22.0255 11.6556 21.7697 11.9381 21.384C12.0347 21.252 12.2934 20.8902 12.5129 20.58C13.1394 19.6948 13.675 18.9409 14.1584 18.264C14.4036 17.9208 14.7148 17.4838 14.8501 17.2928C15.132 16.8947 15.147 16.8899 15.447 17.1ZM15.4778 18.7087C15.3626 18.7896 14.6848 19.7944 14.7067 19.8516C14.7407 19.9402 15.2221 20.256 15.3233 20.256C15.526 20.256 16.0645 19.6208 16.1124 19.3253C16.1472 19.111 16.0691 18.9814 15.8032 18.8128C15.5619 18.6598 15.552 18.6566 15.4778 18.7087ZM6.984 20.1373C7.3272 20.3881 7.6836 20.6461 7.776 20.7106C8.11572 20.9478 8.90495 21.518 10.896 22.9648C11.2788 23.2429 11.8296 23.642 12.12 23.8518C13.7504 25.029 14.2285 25.3747 14.9605 25.9057C15.4046 26.2278 16.038 26.6885 16.368 26.9293C16.9901 27.3835 17.507 27.757 18.0273 28.128C18.194 28.2468 18.7013 28.614 19.1546 28.944C19.608 29.274 20.295 29.7719 20.6814 30.0504C21.0678 30.329 21.6324 30.738 21.936 30.9594C22.2396 31.1808 22.812 31.5949 23.208 31.8798C23.604 32.1646 24.2777 32.652 24.705 32.9628C26.5215 34.2842 27.4715 34.9726 27.5713 35.04C27.6896 35.1198 29.027 36.0894 29.664 36.557C29.8884 36.7218 30.3744 37.0742 30.744 37.34C31.6535 37.9944 33.2886 39.1771 34.368 39.9614C34.8564 40.3163 35.4557 40.7507 35.6997 40.9267C36.2783 41.3437 36.2553 41.3938 35.498 41.367L34.968 41.3483L34.2063 40.7982C33.7875 40.4956 33.3086 40.1508 33.1423 40.032C32.976 39.9132 32.4007 39.4969 31.8639 39.1068C29.9748 37.7341 29.2685 37.2218 28.9698 37.008C28.8038 36.8892 28.3712 36.576 28.0086 36.312C27.6458 36.048 27.2442 35.7564 27.1158 35.664C26.724 35.3819 25.4679 34.4719 24.4614 33.7411C23.9364 33.3599 23.3394 32.9292 23.1347 32.784C22.9301 32.6388 22.4739 32.309 22.1213 32.0513C21.7686 31.7935 21.048 31.2703 20.52 30.8887C19.992 30.5071 19.2468 29.9664 18.864 29.6872C18.4812 29.4079 18.06 29.1035 17.928 29.0106C17.796 28.9177 17.6093 28.7837 17.5131 28.7129C17.417 28.642 17.0066 28.3446 16.6012 28.052C15.6762 27.3846 14.8522 26.7864 14.448 26.4892C14.2764 26.3629 13.5636 25.848 12.864 25.345C12.1644 24.8418 11.5596 24.4031 11.52 24.37C11.4804 24.3368 11.1564 24.1012 10.8 23.846C10.4436 23.591 9.71999 23.0674 9.19199 22.6824C8.66399 22.2973 8.0916 21.8845 7.92 21.7651C7.7484 21.6456 7.3056 21.3252 6.936 21.053L6.264 20.5582L6.24984 20.1833C6.2262 19.5559 6.1914 19.5581 6.984 20.1373ZM20.6454 20.7971C21.1472 21.1508 21.1483 21.1529 21.0181 21.4715C20.9622 21.6082 20.8898 21.7848 20.8573 21.864C20.8247 21.9432 20.7531 22.1268 20.6982 22.272C20.6432 22.4172 20.4758 22.86 20.3262 23.256C20.1764 23.652 20.0143 24.0732 19.9659 24.192C19.9176 24.3108 19.6694 24.9588 19.4144 25.632C18.8498 27.1231 18.83 27.168 18.7374 27.168C18.6742 27.168 18.4873 27.046 17.82 26.5687C17.677 26.4665 17.6824 26.4154 17.88 26.0093C18.1031 25.5509 18.1213 25.5935 17.5142 25.1543C16.8782 24.694 16.9789 24.7048 16.5956 25.056C16.4227 25.2144 16.2424 25.344 16.1948 25.344C16.0811 25.344 15.168 24.7194 15.168 24.6415C15.168 24.5652 15.5888 24.198 17.7815 22.3613C18.2025 22.0086 18.7101 21.5779 18.9095 21.4043C19.6398 20.7684 20.0732 20.4413 20.1479 20.4698C20.1883 20.4854 20.4122 20.6327 20.6454 20.7971ZM6.77448 22.62C7.00056 22.785 7.54776 23.1792 7.99044 23.496C8.43299 23.8128 9.01703 24.234 9.28835 24.432C10.1716 25.0766 10.7107 25.4677 11.76 26.225C12.3276 26.6347 12.9744 27.1044 13.1974 27.2688C13.5398 27.5212 14.1145 27.9355 14.6885 28.344C15.1494 28.672 16.0652 29.336 16.392 29.5792C16.8757 29.939 19.2097 31.6278 19.848 32.0797C20.112 32.2666 20.3565 32.4477 20.3916 32.482C20.4265 32.5163 20.5561 32.6129 20.6796 32.6968C20.8029 32.7805 21.4116 33.217 22.032 33.6666C22.6524 34.1162 23.4624 34.7026 23.832 34.9694C25.3693 36.0798 25.8057 36.3948 25.9122 36.4714C25.974 36.5158 26.1144 36.6193 26.2242 36.7016C26.3341 36.784 26.8668 37.1706 27.408 37.5608C27.9492 37.9511 28.5432 38.3818 28.728 38.5178C28.9128 38.6539 29.3124 38.9429 29.616 39.1601C29.9196 39.3772 30.5244 39.8147 30.96 40.1322C31.3956 40.4497 31.9208 40.83 32.1272 40.9771C32.6711 41.3647 32.7597 41.3482 29.9857 41.3776C28.1682 41.397 27.5171 41.4193 27.336 41.4687C26.5472 41.6836 26.2341 41.7904 25.8462 41.9769C25.3407 42.2196 24.7517 42.6284 24.3341 43.026C23.9863 43.3571 24.0006 43.3592 23.5343 42.9088C22.8183 42.2172 21.7987 41.7331 20.604 41.5175C20.4654 41.4925 20.2278 41.4495 20.076 41.422C19.8947 41.3891 18.0354 41.3732 14.6587 41.3758C8.55816 41.3803 8.55311 41.38 7.68 40.9524C6.96936 40.6044 6.50664 39.9494 6.3096 39.0127C6.23604 38.663 6.19944 22.4246 6.27204 22.352C6.32616 22.2978 6.35076 22.311 6.77448 22.62ZM18.604 23.2092C17.8029 23.956 17.8312 23.8903 18.1916 24.1676C18.5569 24.4488 18.5617 24.4465 18.8136 23.8729C18.9278 23.6129 19.0842 23.262 19.1611 23.0934C19.4306 22.5025 19.3422 22.5209 18.604 23.2092ZM23.736 22.9872C24.0036 23.179 24.1179 23.2906 24.1133 23.3552C24.1057 23.46 24.0393 23.7704 23.8316 24.672C23.7859 24.87 23.7313 25.1184 23.7102 25.224C23.6891 25.3296 23.6377 25.5672 23.5959 25.752C23.459 26.3575 23.5178 26.3429 24.005 25.6505C25.2815 23.8358 25.1083 23.9596 25.7304 24.4176C26.2389 24.7919 26.2357 24.7739 25.8816 25.2677C25.7285 25.4813 25.4855 25.8244 25.3416 26.0303C25.1977 26.2361 24.9591 26.5709 24.8115 26.7743C24.5755 27.0992 23.585 28.4975 22.8757 29.5068C22.5846 29.9212 22.5578 29.9257 22.1227 29.6365C21.7039 29.3581 21.6476 29.2801 21.6991 29.0495C21.7208 28.9519 21.7733 28.71 21.8156 28.512C21.858 28.314 21.9113 28.0764 21.9339 27.984C21.9566 27.8916 21.9979 27.708 22.0256 27.576C22.0533 27.444 22.1077 27.1956 22.1463 27.024C22.3616 26.068 22.3476 26.0794 21.0445 27.9222C20.5723 28.5902 20.6346 28.5742 20.0761 28.1705C19.4952 27.7506 19.4976 27.8405 20.0462 27.072C20.3007 26.7156 20.7152 26.1324 20.9675 25.776C21.5651 24.9314 22.4745 23.6538 22.8554 23.124C23.2181 22.6195 23.2221 22.6189 23.736 22.9872ZM28.3358 26.2525C29.4173 26.7161 29.8095 27.7647 29.2851 28.7903C29.1347 29.0845 29.0931 29.0821 28.6225 28.7512C28.0796 28.3692 28.0631 28.348 28.1616 28.1576C28.3831 27.73 28.1394 27.3022 27.7191 27.381C27.2915 27.4612 25.4887 29.9333 25.4881 30.4403C25.4875 31.0228 26.1657 30.9946 26.5677 30.3954C26.8236 30.0139 26.8272 29.9868 26.64 29.8484C26.4481 29.7065 26.4549 29.6675 26.7447 29.2524C27.0583 28.8035 27.0318 28.8008 27.8149 29.3573C28.5992 29.9148 28.587 29.8336 28.0087 30.6432C26.9317 32.1515 26.2412 32.4581 25.1989 31.8908C24.0425 31.2613 23.9583 30.1468 24.953 28.632C26.4344 26.3759 27.2634 25.7928 28.3358 26.2525ZM31.3963 28.443C31.5421 28.5524 31.7977 28.7341 33.0816 29.6407C33.5658 29.9827 33.5629 29.9711 33.2693 30.3959C32.8387 31.0187 32.9479 31.0217 32.0403 30.3618C31.5143 29.9794 31.5378 29.9798 31.2881 30.348C31.1761 30.513 31.0124 30.7426 30.9243 30.8581C30.7407 31.0991 30.7508 31.1258 31.1201 31.3762C31.23 31.4507 31.3308 31.524 31.344 31.539C31.3572 31.554 31.4706 31.6362 31.596 31.7215C31.8816 31.9158 31.8787 31.952 31.5421 32.4236C31.1973 32.9068 31.2181 32.9057 30.6206 32.4741C30.0019 32.0269 30.0863 32.0122 29.6485 32.6431C29.1955 33.2961 29.1684 33.1782 29.892 33.7005C30.2286 33.9435 30.5137 34.1504 30.5255 34.1605C30.5876 34.2137 29.9579 35.0836 29.856 35.0853C29.8164 35.086 29.5788 34.937 29.328 34.7545C29.0772 34.5719 28.577 34.2151 28.2165 33.9618C27.4137 33.3976 27.4392 33.4801 27.8808 32.8698C28.0827 32.5908 28.518 31.9813 28.848 31.5155C29.178 31.0496 29.6436 30.3938 29.8825 30.0582C30.1215 29.7226 30.4958 29.1942 30.7143 28.884C31.1473 28.2692 31.1568 28.2631 31.3963 28.443ZM35.4356 31.3172C36.3019 31.935 36.4998 32.1164 36.6831 32.4613C37.1495 33.3382 36.2029 34.9622 35.0679 35.2325L34.7358 35.3117L34.6692 35.5478C34.2297 37.1064 33.9701 37.9132 33.8988 37.9416C33.8375 37.966 32.832 37.2729 32.832 37.2062C32.832 37.1868 32.9307 36.8804 33.0516 36.5254C33.1723 36.1704 33.2886 35.8152 33.3099 35.736C33.3314 35.6568 33.4027 35.4257 33.4686 35.2224C33.5748 34.8943 33.5805 34.8416 33.5195 34.7544C33.3578 34.5236 33.2871 34.5942 32.3515 35.9209C31.8584 36.6202 31.9212 36.6011 31.3831 36.2153C30.7838 35.7856 30.7765 35.8939 31.4708 34.9128C31.8042 34.4416 32.2911 33.7536 32.553 33.384C32.8147 33.0144 33.2654 32.3772 33.5544 31.968C33.8435 31.5588 34.1069 31.1911 34.14 31.1511C34.173 31.111 34.2605 30.9976 34.3344 30.899C34.518 30.6547 34.4934 30.6454 35.4356 31.3172ZM34.8108 32.46C34.6116 32.7043 34.0326 33.6101 34.0537 33.6443C34.1193 33.7505 34.5422 33.984 34.6688 33.984C34.9712 33.984 35.472 33.3826 35.472 33.0192C35.472 32.761 34.9355 32.3071 34.8108 32.46ZM39.507 34.1818C40.4953 34.6433 40.8567 35.5733 40.4039 36.4894C40.1642 36.9743 40.1552 36.9753 39.6211 36.5739C39.0771 36.165 39.0884 36.1816 39.2121 35.9717C39.5876 35.3353 38.8352 34.9592 38.4224 35.5769C38.208 35.8978 38.2321 36.0329 38.6136 36.648C39.3248 37.795 39.3378 38.0863 38.7182 39.0098C38.0744 39.9692 37.5139 40.2313 36.6993 39.9538C35.4175 39.517 34.8873 38.3891 35.4899 37.3808C35.6894 37.0468 35.7381 37.0476 36.2121 37.392C36.7628 37.7921 36.7573 37.7835 36.6297 38.0387C36.2838 38.7315 37.1249 39.0408 37.5625 38.3816C37.8779 37.9067 37.8576 37.7886 37.3077 36.905C36.7399 35.9926 36.759 35.6058 37.4136 34.7551C37.9529 34.0543 38.7605 33.8332 39.507 34.1818Z" fill="#06558C"/>
<path fill-rule="evenodd" clip-rule="evenodd" d="M20.5699 16.3649C20.5547 16.3896 20.6128 16.4621 20.6992 16.5262C20.8437 16.6333 22.0763 17.5105 22.872 18.0725C23.0568 18.2029 23.2404 18.3367 23.28 18.3697C23.3196 18.4027 23.568 18.5808 23.832 18.7655C24.096 18.9502 24.3336 19.1184 24.36 19.1394C24.3864 19.1603 24.5376 19.2701 24.696 19.3835C25.9119 20.253 26.7835 20.8781 27.1919 21.1733C28.0604 21.8012 30.2837 23.3927 30.839 23.784C31.6033 24.3227 34.0733 26.0913 34.4308 26.3561C34.5943 26.4771 34.998 26.7669 35.328 27.0001C35.658 27.2334 36.0576 27.5173 36.216 27.6313C36.3744 27.7452 36.882 28.1087 37.344 28.439C37.806 28.7694 38.4216 29.2117 38.712 29.4221C39.0024 29.6324 39.6504 30.0955 40.152 30.4512C40.6536 30.807 41.2028 31.197 41.3725 31.3179C41.601 31.4808 41.6911 31.5221 41.7198 31.4769C41.8031 31.3458 41.7677 16.3812 41.684 16.3492C41.5555 16.2998 20.6005 16.3154 20.5699 16.3649Z" fill="#C02537"/>
<path fill-rule="evenodd" clip-rule="evenodd" d="M15.4782 1.33296C14.2946 2.45664 13.8123 2.87832 13.7504 2.84364C13.7137 2.823 13.3065 2.43408 12.8457 1.97916L12.0078 1.152H6.27587C3.12334 1.152 0.529665 1.1664 0.512025 1.18392C0.494505 1.20144 0.531705 1.30404 0.594585 1.41192C0.751185 1.68024 0.866985 1.8864 1.28422 2.64C1.4815 2.9964 1.65922 3.3096 1.67902 3.336C1.69894 3.3624 1.77479 3.492 1.84774 3.624C1.97123 3.84744 2.60783 4.98936 2.77979 5.29596C2.82167 5.37072 2.87759 5.46792 2.90399 5.51196C2.93039 5.556 3.10174 5.862 3.28474 6.192C3.46775 6.522 3.67295 6.8784 3.74075 6.984L3.86399 7.176L3.88919 23.352L3.91439 39.528L4.01711 39.888C4.25735 40.7294 4.5061 41.258 4.88651 41.736C5.50271 42.5101 6.44159 43.195 7.22399 43.441C7.32959 43.4741 7.45918 43.5178 7.51198 43.5379C7.9969 43.7226 8.17391 43.728 13.7592 43.728C18.3932 43.728 19.2351 43.7386 19.6647 43.8024C21.3246 44.0489 22.6964 44.859 23.7275 46.2018C24.0163 46.5779 23.9905 46.5766 24.2503 46.227C25.0242 45.1858 26.2188 44.3449 27.4183 43.9973C28.344 43.7291 28.3705 43.728 34.2446 43.728C40.1408 43.728 39.8661 43.7398 40.704 43.4528C42.2099 42.9372 43.4184 41.7174 43.8737 40.2538C44.0978 39.533 44.082 40.6651 44.1098 23.376L44.136 7.224L44.6051 6.384C44.8632 5.922 45.1495 5.4144 45.2414 5.256C45.3333 5.0976 45.5307 4.7412 45.6801 4.464C45.8295 4.1868 45.9884 3.906 46.0331 3.84C46.0778 3.774 46.1853 3.5904 46.2722 3.432C46.5689 2.89056 47.2243 1.72212 47.4067 1.40964C47.5085 1.2354 47.5131 1.20768 47.4453 1.18164C47.3261 1.1358 36.0325 1.14804 35.9599 1.19412C35.9247 1.21644 35.5211 1.60704 35.063 2.0622C34.2867 2.83356 34.2236 2.88528 34.1347 2.82288C34.0511 2.76432 33.4829 2.24064 32.5172 1.332L32.2238 1.056L23.9959 1.05696L15.768 1.0578L15.4782 1.33296ZM31.9549 2.652C32.1029 2.7906 32.2812 2.958 32.3511 3.024C34.0382 4.61736 34.1383 4.70604 34.2309 4.692C34.2743 4.6854 34.8185 4.1886 35.4402 3.588L36.5705 2.496H40.8423C43.6555 2.496 45.1245 2.51244 45.1441 2.54424C45.1691 2.58456 44.7836 3.3228 44.3051 4.152C44.151 4.41876 42.9118 6.62112 42.8329 6.768C42.7795 6.8676 42.7685 9.6078 42.7682 22.92C42.7679 40.1978 42.7802 39.3253 42.5252 40.0051C42.1278 41.0645 41.2082 41.9057 40.0749 42.2465L39.72 42.3533L33.888 42.385C29.5501 42.4085 28.0007 42.4316 27.84 42.475C27.7212 42.507 27.5376 42.5513 27.432 42.5732C26.2484 42.8201 24.9899 43.5792 24.2127 44.515L24.0175 44.7499L23.4785 44.1991C22.9185 43.6268 22.4059 43.246 21.9049 43.03C21.7505 42.9632 21.5808 42.8897 21.528 42.8664C21.4752 42.8432 21.3132 42.787 21.168 42.7415C21.0228 42.6961 20.8608 42.6419 20.808 42.6211C20.2843 42.415 20.1758 42.4111 14.088 42.3832L8.27998 42.3565L7.92515 42.2482C6.54443 41.8267 5.60963 40.815 5.30051 39.408C5.24195 39.1411 5.23198 36.7667 5.23198 22.9908V6.8856L4.89178 6.2868C4.7047 5.95752 4.47454 5.5476 4.38034 5.376C4.28602 5.2044 4.03595 4.7616 3.82439 4.392C3.61283 4.0224 3.37547 3.6012 3.29699 3.456C3.21839 3.3108 3.08051 3.06468 2.9905 2.90916C2.72879 2.4564 2.3299 2.496 7.1527 2.496H11.4283L12.1101 3.1518C12.4851 3.5124 12.9965 4.0092 13.2464 4.2558C13.4964 4.50228 13.734 4.70388 13.7744 4.70376C13.8637 4.70352 13.7748 4.78344 15.5912 3.072C15.9415 2.742 16.2649 2.45736 16.31 2.43936C16.3551 2.42148 19.8331 2.40528 24.0389 2.40336L31.6857 2.4L31.9549 2.652ZM8.23631 6.83628C7.93991 6.96084 7.64639 7.20972 7.48006 7.47756C7.04351 8.18052 7.00307 11.4251 7.42055 12.2491C8.10815 13.606 10.2571 13.3986 10.6722 11.9353C10.9776 10.8584 10.9122 8.37072 10.5594 7.6494C10.1555 6.82356 9.12491 6.46296 8.23631 6.83628ZM13.04 6.996C13.0005 7.1214 12.9579 7.278 12.9452 7.344C12.9325 7.41 12.8574 7.6908 12.7783 7.968C12.6992 8.2452 12.5681 8.742 12.4868 9.072C12.4056 9.402 12.3043 9.8124 12.2619 9.984C12.2195 10.1556 12.1663 10.3716 12.144 10.464C12.1215 10.5564 12.0714 10.7508 12.0326 10.896C11.5475 12.7097 11.4771 12.9972 11.5106 13.0307C11.5245 13.0446 11.8223 13.056 12.1723 13.056H12.8085L12.8588 12.9C12.8865 12.8142 12.9236 12.6468 12.9411 12.528C12.9997 12.1324 12.9757 12.144 13.7312 12.144C14.4966 12.144 14.4183 12.0937 14.5383 12.663L14.6161 13.032L15.2761 13.0453C16.0333 13.0607 15.9967 13.0892 15.8593 12.5904C15.8172 12.4373 15.7657 12.2364 15.7449 12.144C15.7242 12.0516 15.6703 11.8464 15.6251 11.688C15.5799 11.5296 15.5241 11.3136 15.5012 11.208C15.4128 10.8002 14.8853 8.73528 14.8585 8.69208C14.843 8.667 14.8109 8.55312 14.7871 8.43924C14.6852 7.9506 14.3937 6.89028 14.3451 6.83172C14.3064 6.78504 14.1341 6.768 13.7019 6.768H13.1117L13.04 6.996ZM16.9181 6.828C16.9055 6.861 16.9007 8.2704 16.9075 9.96L16.92 13.032H17.568H18.216L18.24 12.288C18.2634 11.5634 18.4196 10.944 18.579 10.944C18.6115 10.944 18.768 11.2386 18.768 11.2998C18.768 11.3159 18.8094 11.4206 18.8601 11.5325C18.9108 11.6444 19.068 12.0276 19.2096 12.384L19.4669 13.032L20.1494 13.0453C20.5248 13.0526 20.832 13.0435 20.832 13.025C20.832 13.0067 20.7809 12.8603 20.7183 12.6997C20.6559 12.5393 20.4929 12.1164 20.3561 11.76C20.2191 11.4036 20.0867 11.0744 20.0616 11.0286C20.0365 10.9828 20.016 10.924 20.016 10.8979C20.016 10.8719 19.9597 10.7258 19.8911 10.5733C19.6184 9.96828 19.44 9.50664 19.44 9.40596C19.44 9.3612 19.7003 8.79 20.0185 8.13684C20.7235 6.6894 20.7272 6.792 19.9697 6.792H19.3727L19.2908 6.96C19.2459 7.0524 19.1609 7.236 19.1021 7.368C19.0431 7.5 18.9255 7.7592 18.8408 7.944C18.7561 8.1288 18.6132 8.4576 18.5233 8.67468C18.2877 9.24384 18.2658 9.1866 18.251 7.96776C18.2427 7.27536 18.2193 6.873 18.1851 6.83184C18.1118 6.7434 16.9517 6.74004 16.9181 6.828ZM21.3927 6.83436C21.3788 6.87084 21.387 6.98424 21.411 7.08636C21.435 7.18848 21.5535 7.7256 21.6743 8.28C21.7951 8.8344 21.9129 9.3528 21.936 9.432C21.9591 9.5112 22.0345 9.8352 22.1034 10.152C22.1724 10.4688 22.2482 10.8144 22.272 10.92C22.328 11.1684 22.3859 11.4323 22.5773 12.312L22.734 13.032H23.424H24.114L24.194 12.696C24.2379 12.5112 24.3104 12.1872 24.3551 11.976C24.3996 11.7648 24.4568 11.5002 24.482 11.388C24.5073 11.2758 24.5481 11.0922 24.5729 10.98C24.7299 10.2666 24.7817 10.0372 24.8192 9.888C24.8424 9.7956 24.917 9.4716 24.9851 9.168C25.0531 8.8644 25.1289 8.5404 25.1535 8.448C25.2779 7.9812 25.4918 6.86112 25.4651 6.81768C25.4274 6.75684 24.1613 6.74928 24.1239 6.80964C24.0945 6.85716 23.9849 7.43616 23.9043 7.968C23.8745 8.166 23.8298 8.4468 23.8051 8.592C23.7383 8.9856 23.6261 9.71712 23.5651 10.1563C23.4528 10.9656 23.4033 10.8739 23.1879 9.456C23.1579 9.258 23.0877 8.8152 23.0321 8.472C22.9764 8.1288 22.9225 7.7724 22.9123 7.68C22.9022 7.5876 22.8709 7.3932 22.8427 7.248C22.8146 7.1028 22.7822 6.9354 22.7708 6.876C22.7451 6.74184 21.4434 6.70248 21.3927 6.83436ZM26.48 6.80004C26.4015 6.8784 26.4447 13.0445 26.5239 13.0748C26.669 13.1305 27.6739 13.1069 27.7344 13.0464C27.7955 12.9853 27.8229 7.00044 27.7628 6.84396C27.7326 6.76512 26.5553 6.7248 26.48 6.80004ZM29.1427 6.83196C29.1018 6.88116 29.0905 7.70196 29.0996 9.9654L29.112 13.032L30.564 13.0447L32.016 13.0574V12.4807V11.904H31.224C30.7884 11.904 30.4271 11.8986 30.4211 11.892C30.4151 11.8854 30.3989 10.7352 30.3851 9.336L30.36 6.792L29.7791 6.77856C29.3288 6.76812 29.1857 6.78012 29.1427 6.83196ZM33.1534 6.7986C33.135 6.81696 33.12 8.23272 33.12 9.94464V13.0574L34.596 13.0447L36.072 13.032L36.086 12.576C36.1086 11.8447 36.1819 11.904 35.255 11.904C34.82 11.904 34.4593 11.8986 34.4534 11.892C34.4477 11.8854 34.4315 10.7352 34.4174 9.336L34.392 6.792L33.7893 6.77868C33.4579 6.77124 33.1717 6.78024 33.1534 6.7986ZM37.2061 6.83268C37.166 6.88104 37.1546 7.72092 37.1636 9.9654L37.176 13.032L38.6535 13.0447L40.131 13.0574L40.1175 12.4927L40.104 11.928L39.3251 11.9148C38.3835 11.8988 38.4396 11.95 38.4585 11.1244L38.472 10.536L39.1169 10.5226C39.9205 10.5058 39.888 10.5325 39.888 9.88776C39.888 9.27204 39.9457 9.31356 39.0891 9.3126C38.4002 9.31188 38.448 9.36204 38.448 8.64C38.448 7.90884 38.3786 7.968 39.2359 7.968C40.1763 7.968 40.1354 7.99812 40.1177 7.3194L40.104 6.792L38.6825 6.77928C37.5227 6.76896 37.2509 6.7788 37.2061 6.83268ZM9.27623 7.98528C9.6181 8.3022 9.63838 11.4846 9.3007 11.844C9.04834 12.1126 8.63663 11.9486 8.51171 11.5297C8.40322 11.1664 8.38738 8.81796 8.49046 8.4C8.61191 7.908 8.98199 7.71264 9.27623 7.98528ZM13.7823 9.10416C14.2293 10.89 14.2278 10.944 13.728 10.944C13.3535 10.944 13.2824 10.8828 13.338 10.608C13.362 10.4892 13.4487 10.0615 13.5308 9.6576C13.6129 9.25368 13.68 8.90988 13.68 8.89356C13.68 8.81436 13.7415 8.94084 13.7823 9.10416ZM6.23986 14.2082C6.21082 14.2625 6.19426 14.4883 6.20206 14.7244L6.21598 15.144L23.9897 15.1561L41.7632 15.1681L41.7497 14.6521L41.736 14.136L24.0137 14.1239C6.31043 14.1119 6.29135 14.112 6.23986 14.2082ZM16.896 16.3687C16.896 16.3955 17.1264 16.5845 17.4079 16.7887C17.6894 16.993 18.008 17.2254 18.1159 17.3054C18.2238 17.3854 18.7656 17.7724 19.32 18.1655C19.8744 18.5585 20.706 19.1531 21.168 19.4868C21.63 19.8204 22.0979 20.157 22.2078 20.2348C22.6437 20.5432 23.6333 21.2494 23.8515 21.408C23.9787 21.5004 24.3179 21.7423 24.6054 21.9457C24.8928 22.149 25.3008 22.4423 25.512 22.5973C25.908 22.8882 28.4487 24.7063 30.6032 26.2404C31.277 26.7203 32.0141 27.2495 32.2411 27.4164C32.4681 27.5834 32.81 27.828 33.0009 27.96C33.4986 28.3042 35.9449 30.0527 36.456 30.4296C36.6936 30.6049 37.3416 31.0699 37.896 31.4632C38.4504 31.8564 39.1308 32.3432 39.408 32.5451C39.6852 32.747 40.0919 33.04 40.3117 33.1961C40.5315 33.3522 40.9175 33.6271 41.1695 33.8069C41.7305 34.2074 41.76 34.2022 41.76 33.7009C41.76 33.2528 41.7912 33.2957 41.1197 32.8226C40.8515 32.6338 40.5753 32.4343 40.506 32.3796C40.3451 32.2524 40.1831 32.1354 39.8361 31.896C39.3863 31.5856 36.7592 29.7114 36.576 29.5702C36.3828 29.4212 33.3906 27.2754 32.8248 26.88C32.3028 26.5152 30.0315 24.8903 29.2641 24.3325C28.9165 24.0798 28.5111 23.7882 28.3633 23.6845C28.2156 23.5808 27.69 23.2044 27.1952 22.848C26.7005 22.4916 26.1265 22.0812 25.9196 21.936C25.7129 21.7908 25.2881 21.4872 24.9758 21.2615C24.2987 20.7718 22.4753 19.4666 21.7542 18.9554C21.4713 18.7549 20.5272 18.0803 19.656 17.4563L18.072 16.3218L17.484 16.321C17.1179 16.3204 16.896 16.3384 16.896 16.3687ZM14.8501 17.2928C14.7147 17.4838 14.4036 17.9208 14.1584 18.264C13.6749 18.9409 13.1394 19.6948 12.5129 20.58C12.2934 20.8902 12.0347 21.252 11.9381 21.384C11.6556 21.7697 11.5103 22.0255 11.5433 22.0788C11.5909 22.156 12.4487 22.752 12.5119 22.752C12.5696 22.752 12.8925 22.326 13.5564 21.3738L13.9316 20.8356L14.0699 20.907C14.2488 20.9995 14.2469 21.153 14.0607 21.624C14.0399 21.6768 13.9873 21.8388 13.944 21.984C13.9007 22.1292 13.8467 22.2912 13.824 22.344C13.6945 22.6466 13.4849 23.3864 13.508 23.4589C13.523 23.5057 13.6489 23.6194 13.7876 23.7115C13.9265 23.8037 14.1349 23.9495 14.2509 24.0355C14.5896 24.2868 14.5476 24.3691 15.2113 22.152L15.398 21.528L15.6441 21.4922C16.332 21.3923 17.1339 20.5607 17.3971 19.6747C17.616 18.9378 17.3551 18.4694 16.3075 17.719C16.0107 17.5063 15.7459 17.3152 15.7189 17.2942C15.1703 16.8678 15.1511 16.8678 14.8501 17.2928ZM15.8031 18.8128C16.2728 19.1106 16.2061 19.5348 15.6039 20.0788C15.3609 20.2982 15.3023 20.2988 14.9846 20.0849C14.6364 19.8503 14.6359 19.8551 15.0552 19.2666C15.543 18.5821 15.4901 18.6143 15.8031 18.8128ZM6.26026 19.7442C6.2467 19.7796 6.24202 19.9771 6.24983 20.1833L6.26399 20.5582L6.93599 21.053C7.30558 21.3252 7.74838 21.6456 7.91998 21.7651C8.09159 21.8845 8.66399 22.2973 9.19199 22.6824C9.71999 23.0674 10.4436 23.591 10.8 23.846C11.1564 24.1012 11.4804 24.3368 11.52 24.37C11.5596 24.4031 12.1644 24.8418 12.864 25.345C13.5636 25.848 14.2764 26.3629 14.448 26.4892C14.8521 26.7864 15.6762 27.3846 16.6011 28.052C17.0066 28.3446 17.417 28.642 17.5131 28.7129C17.6093 28.7837 17.796 28.9177 17.928 29.0106C18.06 29.1035 18.4812 29.4079 18.864 29.6872C19.2468 29.9664 19.992 30.5071 20.52 30.8887C21.048 31.2703 21.7686 31.7935 22.1213 32.0513C22.4739 32.309 22.9301 32.6388 23.1347 32.784C23.3394 32.9292 23.9364 33.3599 24.4614 33.7411C25.4679 34.4719 26.724 35.3819 27.1158 35.664C27.2442 35.7564 27.6458 36.048 28.0086 36.312C28.3712 36.576 28.8038 36.8892 28.9698 37.008C29.2685 37.2218 29.9748 37.7341 31.8639 39.1068C32.4007 39.4969 32.976 39.9132 33.1423 40.032C33.3086 40.1508 33.7875 40.4956 34.2063 40.7982L34.968 41.3483L35.498 41.367C36.2553 41.3938 36.2783 41.3437 35.6997 40.9267C35.4557 40.7507 34.8564 40.3163 34.368 39.9614C33.2886 39.1771 31.6535 37.9944 30.744 37.34C30.3744 37.0742 29.8884 36.7218 29.664 36.557C29.027 36.0894 27.6896 35.1198 27.5713 35.04C27.4715 34.9726 26.5215 34.2842 24.705 32.9628C24.2777 32.652 23.604 32.1646 23.208 31.8798C22.812 31.5949 22.2396 31.1808 21.936 30.9594C21.6324 30.738 21.0678 30.329 20.6814 30.0504C20.295 29.7719 19.608 29.274 19.1546 28.944C18.7013 28.614 18.194 28.2468 18.0273 28.128C17.507 27.757 16.9901 27.3835 16.368 26.9293C16.038 26.6885 15.4046 26.2278 14.9605 25.9057C14.2285 25.3747 13.7504 25.029 12.12 23.8518C11.8296 23.642 11.2788 23.2429 10.896 22.9648C8.90495 21.518 8.11571 20.9478 7.77599 20.7106C7.68359 20.6461 7.32719 20.3881 6.98398 20.1373C6.32662 19.6568 6.2995 19.6422 6.26026 19.7442ZM19.6731 20.7652C19.4525 20.9431 19.1089 21.2308 18.9095 21.4043C18.7101 21.5779 18.2025 22.0086 17.7815 22.3613C15.5888 24.198 15.168 24.5652 15.168 24.6415C15.168 24.7194 16.0811 25.344 16.1948 25.344C16.2423 25.344 16.4227 25.2144 16.5956 25.056C16.9789 24.7048 16.8782 24.694 17.5142 25.1543C18.1213 25.5935 18.1031 25.5509 17.88 26.0093C17.6823 26.4154 17.6769 26.4665 17.82 26.5687C18.4873 27.046 18.6741 27.168 18.7374 27.168C18.83 27.168 18.8498 27.1231 19.4144 25.632C19.6694 24.9588 19.9176 24.3108 19.9659 24.192C20.0143 24.0732 20.1764 23.652 20.3262 23.256C20.4758 22.86 20.6432 22.4172 20.6982 22.272C20.7531 22.1268 20.8247 21.9432 20.8573 21.864C21.1767 21.0874 21.1962 21.1853 20.6454 20.7971C20.0719 20.3927 20.1325 20.3947 19.6731 20.7652ZM6.27202 22.352C6.19942 22.4246 6.23603 38.663 6.30959 39.0127C6.50663 39.9494 6.96935 40.6044 7.67999 40.9524C8.55311 41.38 8.55814 41.3803 14.6587 41.3758C18.0354 41.3732 19.8947 41.3891 20.076 41.422C20.2278 41.4494 20.4654 41.4925 20.604 41.5175C21.7987 41.7331 22.8183 42.2172 23.5343 42.9088C24.0006 43.3592 23.9863 43.3571 24.3341 43.026C24.7517 42.6284 25.3407 42.2196 25.8462 41.9768C26.2341 41.7904 26.5472 41.6836 27.336 41.4686C27.5171 41.4193 28.1682 41.397 29.9857 41.3776C32.7597 41.3482 32.6711 41.3647 32.1272 40.9771C31.9208 40.83 31.3956 40.4497 30.96 40.1322C30.5244 39.8147 29.9196 39.3772 29.616 39.1601C29.3124 38.9429 28.9128 38.6539 28.728 38.5178C28.5432 38.3818 27.9492 37.9511 27.408 37.5608C26.8668 37.1706 26.3341 36.784 26.2242 36.7016C26.1144 36.6193 25.974 36.5158 25.9122 36.4714C25.8057 36.3948 25.3693 36.0798 23.832 34.9694C23.4624 34.7026 22.6524 34.1162 22.032 33.6666C21.4116 33.217 20.8029 32.7805 20.6796 32.6968C20.5561 32.6129 20.4265 32.5163 20.3916 32.482C20.3565 32.4476 20.112 32.2666 19.848 32.0797C19.2097 31.6278 16.8757 29.939 16.392 29.5792C16.0652 29.336 15.1494 28.672 14.6885 28.344C14.1145 27.9355 13.5398 27.5212 13.1973 27.2688C12.9744 27.1044 12.3276 26.6347 11.76 26.225C10.7107 25.4677 10.1715 25.0766 9.28835 24.432C9.01702 24.234 8.43298 23.8128 7.99042 23.496C7.54774 23.1792 7.00055 22.785 6.77446 22.62C6.35074 22.311 6.32614 22.2978 6.27202 22.352ZM19.1611 23.0934C19.0842 23.262 18.9278 23.6129 18.8136 23.8729C18.5617 24.4465 18.5569 24.4488 18.1916 24.1676C17.8311 23.8903 17.8029 23.956 18.6039 23.2092C19.3422 22.5209 19.4306 22.5025 19.1611 23.0934ZM22.8554 23.124C22.4745 23.6538 21.5651 24.9314 20.9675 25.776C20.7152 26.1324 20.3007 26.7156 20.0462 27.072C19.4976 27.8405 19.4952 27.7506 20.0761 28.1705C20.6346 28.5742 20.5723 28.5902 21.0445 27.9222C22.3476 26.0794 22.3616 26.068 22.1463 27.024C22.1077 27.1956 22.0533 27.444 22.0256 27.576C21.9979 27.708 21.9566 27.8916 21.9339 27.984C21.9113 28.0764 21.858 28.314 21.8156 28.512C21.7733 28.71 21.7208 28.9519 21.6991 29.0495C21.6476 29.2801 21.7039 29.3581 22.1227 29.6365C22.5578 29.9257 22.5846 29.9212 22.8757 29.5068C23.585 28.4975 24.5755 27.0992 24.8115 26.7743C24.9591 26.5709 25.1977 26.2361 25.3416 26.0303C25.4855 25.8244 25.7285 25.4813 25.8816 25.2677C26.2357 24.7739 26.2389 24.7919 25.7304 24.4176C25.1083 23.9596 25.2815 23.8358 24.005 25.6505C23.5178 26.3429 23.459 26.3575 23.5959 25.752C23.6377 25.5672 23.6891 25.3296 23.7102 25.224C23.7313 25.1184 23.7859 24.87 23.8316 24.672C24.0393 23.7704 24.1057 23.46 24.1133 23.3552C24.1211 23.2474 23.4143 22.7146 23.2547 22.708C23.1852 22.7052 23.0708 22.8244 22.8554 23.124ZM27.432 26.1427C26.6715 26.2578 25.0163 28.1327 24.4157 29.5591C23.6161 31.4581 26.0091 33.0353 27.3605 31.5C27.6872 31.1288 28.464 30.0112 28.464 29.9122C28.464 29.8051 27.2255 28.896 27.0797 28.896C26.9891 28.896 26.496 29.5543 26.496 29.6753C26.496 29.712 26.5608 29.7899 26.64 29.8484C26.8272 29.9868 26.8236 30.0139 26.5677 30.3954C25.9976 31.2452 25.1963 30.8918 25.6501 29.9908C25.9231 29.4486 26.7894 28.235 27.2696 27.7216C27.851 27.1001 28.536 27.4349 28.1616 28.1576C28.0631 28.348 28.0796 28.3692 28.6225 28.7512C29.1524 29.1239 29.2605 29.071 29.4547 28.344C29.7757 27.1423 28.6831 25.9534 27.432 26.1427ZM30.7143 28.884C30.4958 29.1942 30.1215 29.7226 29.8825 30.0582C29.6436 30.3938 29.178 31.0496 28.848 31.5155C28.518 31.9813 28.0827 32.5908 27.8808 32.8698C27.4392 33.4801 27.4137 33.3976 28.2165 33.9618C28.577 34.2151 29.0772 34.5719 29.328 34.7545C29.5788 34.937 29.8164 35.086 29.856 35.0852C29.9579 35.0836 30.5876 34.2137 30.5255 34.1605C30.5137 34.1504 30.2286 33.9434 29.892 33.7004C29.1684 33.1782 29.1955 33.296 29.6485 32.6431C30.0863 32.0122 30.0019 32.0269 30.6206 32.474C31.2181 32.9057 31.1973 32.9068 31.5421 32.4236C31.8787 31.952 31.8816 31.9158 31.596 31.7215C31.4706 31.6362 31.3572 31.554 31.344 31.539C31.3308 31.524 31.23 31.4507 31.1201 31.3762C30.7508 31.1258 30.7407 31.0991 30.9243 30.8581C31.0124 30.7426 31.1761 30.513 31.2881 30.348C31.5378 29.9798 31.5143 29.9794 32.0403 30.3618C32.9479 31.0217 32.8387 31.0187 33.2693 30.3959C33.5629 29.9711 33.5658 29.9827 33.0816 29.6407C31.7977 28.7341 31.5421 28.5524 31.3963 28.443C31.1568 28.2631 31.1473 28.2692 30.7143 28.884ZM34.3344 30.899C34.2605 30.9976 34.173 31.111 34.14 31.151C34.1069 31.1911 33.8435 31.5588 33.5544 31.968C33.2654 32.3772 32.8147 33.0144 32.553 33.384C32.2911 33.7536 31.8042 34.4416 31.4708 34.9128C30.7765 35.8939 30.7838 35.7856 31.3831 36.2153C31.9212 36.6011 31.8584 36.6202 32.3515 35.9209C33.2871 34.5942 33.3578 34.5236 33.5195 34.7544C33.5805 34.8416 33.5748 34.8943 33.4686 35.2224C33.4027 35.4257 33.3314 35.6568 33.3099 35.736C33.2886 35.8152 33.1723 36.1704 33.0516 36.5254C32.9307 36.8804 32.832 37.1868 32.832 37.2062C32.832 37.2728 33.8375 37.966 33.8988 37.9416C33.9701 37.9132 34.2297 37.1064 34.6692 35.5478L34.7358 35.3117L35.0679 35.2325C36.2029 34.9622 37.1495 33.3382 36.6831 32.4613C36.4998 32.1164 36.3019 31.935 35.4356 31.3172C34.4934 30.6454 34.518 30.6547 34.3344 30.899ZM35.196 32.6167C35.6021 32.9356 35.4908 33.4986 34.9452 33.8872C34.7229 34.0453 34.2163 33.9073 34.0537 33.6443C34.0326 33.6101 34.6116 32.7043 34.8108 32.46C34.8812 32.3737 34.8919 32.378 35.196 32.6167ZM38.22 34.1012C37.5459 34.4041 36.9139 35.2687 36.9126 35.8897C36.9119 36.2411 36.9408 36.3154 37.3078 36.905C37.8576 37.7886 37.8779 37.9067 37.5625 38.3816C37.1249 39.0408 36.2838 38.7314 36.6297 38.0387C36.7573 37.7834 36.7628 37.7921 36.2121 37.392C35.7381 37.0476 35.6894 37.0468 35.4899 37.3808C34.8873 38.3891 35.4175 39.517 36.6993 39.9538C37.5139 40.2313 38.0744 39.9692 38.7182 39.0098C39.3378 38.0863 39.3248 37.795 38.6136 36.648C38.2321 36.0329 38.208 35.8978 38.4224 35.5769C38.8352 34.9592 39.5876 35.3353 39.2122 35.9717C39.0884 36.1816 39.0771 36.165 39.6211 36.5738C40.1552 36.9752 40.1642 36.9743 40.4039 36.4894C40.8568 35.5733 40.4953 34.6433 39.507 34.1818C39.1782 34.0282 38.4798 33.9845 38.22 34.1012Z" fill="#FAFAFB"/>
</svg>
